<svg width="22" height="22" viewBox="0 0 22 22" fill="none" xmlns="http://www.w3.org/2000/svg">
<path d="M11 16.6833C13.025 16.6833 14.6666 15.0417 14.6666 13.0166C14.6666 10.9916 13.025 9.34998 11 9.34998C8.97494 9.34998 7.33331 10.9916 7.33331 13.0166C7.33331 15.0417 8.97494 16.6833 11 16.6833Z" stroke="#090909" stroke-width="1.5" stroke-miterlimit="10" stroke-linecap="round" stroke-linejoin="round"/>
<path d="M9.57001 13.1083L10.1658 13.7041C10.34 13.8783 10.6242 13.8783 10.7983 13.7133L12.43 12.21" stroke="#090909" stroke-width="1.5" stroke-linecap="round" stroke-linejoin="round"/>
<path d="M7.33334 20.1667H14.6667C18.3517 20.1667 19.0117 18.6908 19.2042 16.8942L19.8917 9.56083C20.1392 7.32417 19.4975 5.5 15.5833 5.5H6.41667C2.5025 5.5 1.86084 7.32417 2.10834 9.56083L2.79584 16.8942C2.98834 18.6908 3.64834 20.1667 7.33334 20.1667Z" stroke="#090909" stroke-width="1.5" stroke-miterlimit="10" stroke-linecap="round" stroke-linejoin="round"/>
<path d="M7.33331 5.50004V4.76671C7.33331 3.14421 7.33331 1.83337 10.2666 1.83337H11.7333C14.6666 1.83337 14.6666 3.14421 14.6666 4.76671V5.50004" stroke="#090909" stroke-width="1.5" stroke-miterlimit="10" stroke-linecap="round" stroke-linejoin="round"/>
<path d="M19.8458 10.0834C18.26 11.2384 16.5 12.045 14.6758 12.5034" stroke="#090909" stroke-width="1.5" stroke-miterlimit="10" stroke-linecap="round" stroke-linejoin="round"/>
<path d="M2.40167 10.3308C3.93251 11.3758 5.60084 12.1183 7.33334 12.54" stroke="#090909" stroke-width="1.5" stroke-miterlimit="10" stroke-linecap="round" stroke-linejoin="round"/>
</svg>
