<svg width="22" height="22" viewBox="0 0 22 22" fill="none" xmlns="http://www.w3.org/2000/svg">
<path d="M18.1408 13.6858C16.2525 15.565 13.5483 16.1425 11.1741 15.4L6.85664 19.7083C6.54497 20.0292 5.9308 20.2217 5.4908 20.1575L3.49247 19.8825C2.83247 19.7908 2.2183 19.1675 2.11747 18.5075L1.84247 16.5092C1.7783 16.0692 1.98914 15.455 2.29164 15.1433L6.59997 10.835C5.86664 8.45167 6.43497 5.7475 8.3233 3.86833C11.0275 1.16417 15.4183 1.16417 18.1316 3.86833C20.845 6.5725 20.845 10.9817 18.1408 13.6858Z" stroke="black" stroke-width="1.5" stroke-miterlimit="10" stroke-linecap="round" stroke-linejoin="round"/>
<path d="M6.31586 16.0325L8.42419 18.1408" stroke="black" stroke-width="1.5" stroke-miterlimit="10" stroke-linecap="round" stroke-linejoin="round"/>
<path d="M13.2917 10.0834C14.0511 10.0834 14.6667 9.46777 14.6667 8.70837C14.6667 7.94898 14.0511 7.33337 13.2917 7.33337C12.5323 7.33337 11.9167 7.94898 11.9167 8.70837C11.9167 9.46777 12.5323 10.0834 13.2917 10.0834Z" stroke="black" stroke-width="1.5" stroke-linecap="round" stroke-linejoin="round"/>
</svg>
