<svg width="22" height="22" viewBox="0 0 22 22" fill="none" xmlns="http://www.w3.org/2000/svg">
<path d="M15.5833 16.8943H11.9166L7.83747 19.6076C7.23247 20.0109 6.41665 19.5801 6.41665 18.8468V16.8943C3.66665 16.8943 1.83331 15.0609 1.83331 12.3109V6.81087C1.83331 4.06087 3.66665 2.22754 6.41665 2.22754H15.5833C18.3333 2.22754 20.1666 4.06087 20.1666 6.81087V12.3109C20.1666 15.0609 18.3333 16.8943 15.5833 16.8943Z" stroke="black" stroke-width="1.5" stroke-miterlimit="10" stroke-linecap="round" stroke-linejoin="round"/>
<path d="M11 10.4133V10.2209C11 9.59753 11.385 9.26752 11.77 9.00168C12.1458 8.74502 12.5216 8.41503 12.5216 7.81003C12.5216 6.96669 11.8433 6.28833 11 6.28833C10.1566 6.28833 9.47833 6.96669 9.47833 7.81003" stroke="black" stroke-width="1.5" stroke-linecap="round" stroke-linejoin="round"/>
<path d="M10.9959 12.6042H11.0041" stroke="black" stroke-width="1.5" stroke-linecap="round" stroke-linejoin="round"/>
</svg>
