<svg width="19" height="21" viewBox="0 0 19 21" fill="none" xmlns="http://www.w3.org/2000/svg">
<path d="M18.119 6.95001C17.069 2.33001 13.039 0.25 9.499 0.25C9.499 0.25 9.49902 0.25 9.48902 0.25C5.95902 0.25 1.919 2.32 0.868996 6.94C-0.301004 12.1 2.859 16.47 5.719 19.22C6.779 20.24 8.139 20.75 9.499 20.75C10.859 20.75 12.219 20.24 13.269 19.22C16.129 16.47 19.289 12.11 18.119 6.95001ZM9.499 11.96C7.759 11.96 6.34901 10.55 6.34901 8.81C6.34901 7.07 7.759 5.65997 9.499 5.65997C11.239 5.65997 12.649 7.07 12.649 8.81C12.649 10.55 11.239 11.96 9.499 11.96Z" fill="#35485B"/>
</svg>
